<svg xmlns="http://www.w3.org/2000/svg" width="345.479" height="345.48" viewBox="0 0 345.479 345.48">
  <defs>
    <style>
      .cls-1, .cls-2, .cls-3, .cls-4 {
        fill: none;
        stroke-miterlimit: 10;
        stroke-width: 20px;
      }

      .cls-1 {
        stroke: #edf1fe;
      }

      .cls-2 {
        stroke: #d5defd;
      }

      .cls-3 {
        stroke: #beceff;
      }

      .cls-4 {
        stroke: #5a80fb;
      }
    </style>
  </defs>
  <g id="Graph" transform="translate(-546.999 -1052.6)">
    <g id="Group_3389" data-name="Group 3389" transform="translate(5)">
      <path id="Path_5156" data-name="Path 5156" class="cls-1" d="M326.7,115.7a164.532,164.532,0,0,1,10.255,40.7A161.844,161.844,0,0,1,337.6,187a162.7,162.7,0,0,1-18.249,64.033A160.988,160.988,0,0,1,308.212,269.2,163.327,163.327,0,0,1,292.3,288.417,158.693,158.693,0,0,1,266.142,310.3a160.886,160.886,0,0,1-31.169,16.311c-83.736,32.945-178.211-8.156-211.075-91.73s8.156-178.131,91.811-211A161.948,161.948,0,0,1,246.52,28.973a165.875,165.875,0,0,1,27.293,16.715,160,160,0,0,1,23.659,21.964,165.176,165.176,0,0,1,15.5,20.752A176.022,176.022,0,0,1,326.7,115.7Z" transform="translate(539.437 1050.1)"/>
      <path id="Path_5157" data-name="Path 5157" class="cls-2" d="M214.1,12.5a161.939,161.939,0,0,1,71.139,16.473,165.867,165.867,0,0,1,27.293,16.715,160,160,0,0,1,23.659,21.964,165.179,165.179,0,0,1,15.5,20.752,162.01,162.01,0,0,1,13.727,27.212,164.531,164.531,0,0,1,10.255,40.7,161.847,161.847,0,0,1,.646,30.6,162.7,162.7,0,0,1-18.249,64.033,160.982,160.982,0,0,1-11.143,18.168" transform="translate(500.637 1050.1)"/>
      <path id="Path_5158" data-name="Path 5158" class="cls-3" d="M214.1,12.5a161.939,161.939,0,0,1,71.139,16.473,165.867,165.867,0,0,1,27.293,16.715,160,160,0,0,1,23.659,21.964,165.179,165.179,0,0,1,15.5,20.752,162.01,162.01,0,0,1,13.727,27.212" transform="translate(500.637 1050.1)"/>
      <path id="Path_5159" data-name="Path 5159" class="cls-4" d="M214.1,12.5a161.939,161.939,0,0,1,71.139,16.473" transform="translate(500.637 1050.1)"/>
    </g>
  </g>
</svg>
